<?xml version="1.0" encoding="utf-8"?>
<!-- Generator: Adobe Illustrator 18.1.1, SVG Export Plug-In . SVG Version: 6.00 Build 0)  -->
<svg version="1.1" id="Capa_1" xmlns="http://www.w3.org/2000/svg" xmlns:xlink="http://www.w3.org/1999/xlink" x="0px" y="0px"
	 viewBox="0 0 662.8 905.8" enable-background="new 0 0 662.8 905.8" xml:space="preserve">
<rect x="0" y="0" fill="#212121" width="662.8" height="905.8"/>
<g>
	<g>
		<path fill="none" stroke="#FFFFFF" stroke-miterlimit="10" d="M229.6,125.9c0-2.6-2.3-4.9-6.2-7v-4h0c0-0.1,0-0.3,0-0.4
			c0-6.3-16.3-11.4-36.3-11.4s-36.3,5.1-36.3,11.4c0,0.1,0,0.3,0,0.4h0v4.3c-4.3,1.9-6.2,3.9-6.2,6.7c0,0.2,0,0.3,0,0.5h0v9.9h0
			c0.2,7.3,19.2,13.2,42.5,13.2s42.3-5.9,42.5-13.2h0v-9.9h0C229.6,126.2,229.6,126,229.6,125.9z M155,111.9
			c1.6-1.2,4.1-2.3,7.1-3.3c6.6-2.1,15.5-3.2,25-3.2s18.3,1.1,25,3.2c6.2,2,9,4.4,9,5.9c0,0,0,0.1,0,0.2c-0.1,0.7-0.7,1.5-1.8,2.3
			c-1.4,1-3.4,2.1-5.9,2.9l0,0c-0.2,0.1-0.3,0.1-0.5,0.2l0,0l0,0c-0.2,0.1-0.3,0.1-0.5,0.2l0,0l0,0c-0.2,0-0.3,0.1-0.5,0.1l-0.1,0
			l-0.1,0c-0.2,0-0.3,0.1-0.5,0.1l-0.1,0l-0.1,0c-0.2,0-0.3,0.1-0.5,0.1l-0.1,0l-0.1,0c-0.1,0-0.3,0.1-0.4,0.1l-0.1,0l-0.1,0
			c-0.1,0-0.3,0.1-0.4,0.1l-0.1,0l-0.1,0c-0.1,0-0.3,0.1-0.4,0.1l0,0l-0.2,0c-0.1,0-0.3,0.1-0.4,0.1l-0.2,0.1
			c-0.1,0-0.3,0.1-0.4,0.1l-0.3,0.1c-0.1,0-0.3,0.1-0.4,0.1l-0.3,0.1c-0.1,0-0.3,0.1-0.4,0.1c-0.1,0-0.2,0-0.3,0.1
			c-0.1,0-0.3,0.1-0.4,0.1c-0.1,0-0.2,0-0.3,0.1c-0.1,0-0.3,0.1-0.4,0.1c-0.1,0-0.2,0-0.3,0.1c-0.1,0-0.3,0-0.4,0.1
			c-0.1,0-0.2,0-0.3,0.1c-0.1,0-0.3,0-0.4,0.1c-0.1,0-0.2,0-0.3,0.1c-0.1,0-0.3,0-0.4,0.1c-0.1,0-0.2,0-0.3,0.1
			c-0.1,0-0.3,0-0.4,0.1c-0.1,0-0.2,0-0.4,0c-0.1,0-0.3,0-0.4,0.1c-0.1,0-0.2,0-0.3,0l0,0c-0.1,0-0.3,0-0.4,0.1c-0.1,0-0.2,0-0.4,0
			c-0.1,0-0.3,0-0.4,0c-0.1,0-0.3,0-0.4,0l0,0c-0.1,0-0.3,0-0.4,0c-0.1,0-0.2,0-0.4,0l0,0l0,0c-0.1,0-0.3,0-0.4,0
			c-0.1,0-0.2,0-0.3,0l-0.1,0l-0.1,0c-0.1,0-0.2,0-0.3,0c-0.1,0-0.2,0-0.3,0l-0.1,0l-0.1,0c-0.1,0-0.2,0-0.3,0c-0.1,0-0.2,0-0.3,0
			l-0.1,0l-0.1,0c-0.1,0-0.2,0-0.3,0c-0.1,0-0.2,0-0.4,0l-0.1,0l-0.1,0c-0.1,0-0.2,0-0.3,0c-0.1,0-0.2,0-0.3,0l-0.1,0l-0.1,0
			c-0.1,0-0.2,0-0.3,0c-0.1,0-0.2,0-0.3,0l-0.1,0l-0.1,0c-0.1,0-0.2,0-0.3,0c-0.1,0-0.2,0-0.3,0l-0.1,0l-0.1,0c-0.1,0-0.2,0-0.3,0
			c-0.1,0-0.2,0-0.4,0l-0.1,0l-0.1,0c-0.1,0-0.2,0-0.3,0c-0.1,0-0.3,0-0.4,0l-0.1,0l-0.1,0l-0.2,0c-0.1,0-0.3,0-0.4,0l-0.1,0l-0.1,0
			l-0.2,0c-0.2,0-0.4,0-0.6,0l-0.1,0l-0.1,0l-0.2,0c-0.3,0-0.6,0-0.9,0s-0.6,0-0.9,0l-0.2,0l-0.1,0l-0.1,0c-0.2,0-0.4,0-0.6,0
			l-0.2,0l-0.1,0l-0.1,0c-0.1,0-0.3,0-0.4,0l-0.2,0l-0.1,0l-0.1,0c-0.1,0-0.3,0-0.4,0c-0.1,0-0.2,0-0.3,0l-0.1,0l-0.1,0
			c-0.1,0-0.2,0-0.4,0c-0.1,0-0.2,0-0.3,0l-0.1,0l-0.1,0c-0.1,0-0.2,0-0.3,0c-0.1,0-0.2,0-0.3,0l-0.1,0l-0.1,0c-0.1,0-0.2,0-0.3,0
			c-0.1,0-0.2,0-0.3,0l-0.1,0l-0.1,0c-0.1,0-0.2,0-0.3,0c-0.1,0-0.2,0-0.3,0l-0.1,0l-0.1,0c-0.1,0-0.2,0-0.4,0c-0.1,0-0.2,0-0.3,0
			l-0.1,0l-0.1,0c-0.1,0-0.2,0-0.3,0c-0.1,0-0.2,0-0.3,0l-0.1,0l-0.1,0c-0.1,0-0.2,0-0.3,0c-0.1,0-0.2,0-0.3,0l-0.1,0l-0.1,0
			c-0.1,0-0.2,0-0.3,0c-0.1,0-0.3,0-0.4,0l0,0l0,0c-0.1,0-0.2,0-0.4,0c-0.1,0-0.3,0-0.4,0l0,0c-0.1,0-0.3,0-0.4,0
			c-0.1,0-0.3,0-0.4,0l0,0c-0.1,0-0.2,0-0.3,0c-0.1,0-0.3,0-0.4-0.1c-0.1,0-0.2,0-0.4,0c-0.1,0-0.3,0-0.4-0.1c-0.1,0-0.2,0-0.4,0
			c-0.1,0-0.3,0-0.4-0.1c-0.1,0-0.2,0-0.3-0.1c-0.1,0-0.3,0-0.4-0.1c-0.1,0-0.2,0-0.3-0.1c-0.1,0-0.3,0-0.4-0.1
			c-0.1,0-0.2,0-0.3-0.1c-0.1,0-0.3,0-0.4-0.1c-0.1,0-0.2,0-0.3-0.1c-0.1,0-0.3-0.1-0.4-0.1c-0.1,0-0.2,0-0.3-0.1
			c-0.1,0-0.3-0.1-0.4-0.1c-0.1,0-0.2,0-0.3-0.1c-0.1,0-0.3-0.1-0.4-0.1l-0.3-0.1c-0.1,0-0.3-0.1-0.4-0.1l-0.2-0.1
			c-0.1,0-0.3-0.1-0.4-0.1l-0.2,0l0,0c-0.1,0-0.3-0.1-0.4-0.1l-0.2,0l0,0c-0.1,0-0.3-0.1-0.4-0.1l-0.2,0l0,0c-0.1,0-0.3-0.1-0.4-0.1
			l-0.1,0l-0.1,0c-0.2,0-0.3-0.1-0.4-0.1l-0.1,0l-0.1,0c-0.2,0-0.3-0.1-0.5-0.1l-0.1,0l-0.1,0c-0.2,0-0.3-0.1-0.5-0.1l-0.1,0l-0.1,0
			c-0.2,0-0.3-0.1-0.5-0.1l0,0l0,0c-0.2-0.1-0.3-0.1-0.5-0.2l0,0l0,0c-0.2-0.1-0.3-0.1-0.5-0.2l0,0c-5.5-1.9-7.6-4-7.7-5.3
			c0-0.1,0-0.1,0-0.2C153.1,113.8,153.7,112.8,155,111.9z M227.2,126.4c-0.2,0.8-0.9,1.7-1.7,2.3c-0.2,0.2-0.5,0.4-0.7,0.5
			c-1.9,1.4-4.8,2.8-8.4,3.9c-7.8,2.5-18.3,3.8-29.4,3.8s-21.6-1.4-29.4-3.8c-3.6-1.1-6.5-2.5-8.4-3.9c-0.2-0.2-0.5-0.3-0.7-0.5
			c-0.7-0.6-1.5-1.5-1.7-2.3c0-0.2-0.1-0.3-0.1-0.5c0-1.3,1.3-2.5,2.4-3.4c0.5-0.3,1-0.7,1.5-1v1.9h0c0.2,6.2,16.4,11.3,36.3,11.3
			s36.1-5,36.3-11.3h0v-1.9c0.6,0.3,1.1,0.7,1.5,1c1.1,0.8,2.4,2.1,2.4,3.4C227.3,126,227.3,126.2,227.2,126.4z"/>
	</g>
	<g transform="translate(0,-1020.3622)">
		<g transform="translate(-169,-452)">
			<path fill="#FFFFFF" stroke="#000000" stroke-width="0.7" stroke-miterlimit="10" d="M538.7,1568.3c-0.5,0.2-0.8,0.6-0.7,1.1
				v58.5c0,0.6,0.5,1.1,1.1,1.1h58.5c0.6,0,1.1-0.5,1.1-1.1v-44.5v-14c0-0.6-0.5-1.1-1.1-1.1H539
				C538.9,1568.3,538.8,1568.3,538.7,1568.3z M540.1,1570.5h56.4v6.5h-56.4V1570.5z M543.4,1572.6c-0.6,0-1.1,0.5-1.1,1.1
				c0,0.6,0.5,1.1,1.1,1.1c0.6,0,1.1-0.5,1.1-1.1C544.5,1573.1,544,1572.6,543.4,1572.6z M547.7,1572.6c-0.6,0-1.1,0.5-1.1,1.1
				c0,0.6,0.5,1.1,1.1,1.1s1.1-0.5,1.1-1.1C548.8,1573.1,548.3,1572.6,547.7,1572.6z M552,1572.6c-0.6,0-1.1,0.5-1.1,1.1
				c0,0.6,0.5,1.1,1.1,1.1s1.1-0.5,1.1-1.1C553.1,1573.1,552.6,1572.6,552,1572.6z M540.1,1579.1h56.4v4.3v43.4h-56.4V1579.1z
				 M543.4,1581.3c-0.6,0-1.1,0.5-1.1,1.1c0,0.6,0.5,1.1,1.1,1.1c0.6,0,1.1-0.5,1.1-1.1C544.5,1581.8,544,1581.3,543.4,1581.3z
				 M548.8,1581.3v2.2h10.8v-2.2H548.8z M561.8,1581.3v2.2h4.3v-2.2H561.8z M568.3,1581.3v2.2H590v-2.2H568.3z M543.4,1585.7
				c-0.6,0-1.1,0.5-1.1,1.1c0,0.6,0.5,1.1,1.1,1.1c0.6,0,1.1-0.5,1.1-1.1C544.5,1586.1,544,1585.7,543.4,1585.7z M548.8,1585.7v2.2
				h2.2v-2.2H548.8z M553.1,1585.7v2.2h17.3v-2.2H553.1z M572.6,1585.7v2.2h2.2v-2.2H572.6z M577,1585.7v2.2h8.7v-2.2H577z
				 M543.4,1590c-0.6,0-1.1,0.5-1.1,1.1c0,0.6,0.5,1.1,1.1,1.1c0.6,0,1.1-0.5,1.1-1.1C544.5,1590.5,544,1590,543.4,1590z
				 M548.8,1590v2.2h17.3v-2.2H548.8z M543.4,1594.3c-0.6,0-1.1,0.5-1.1,1.1c0,0.6,0.5,1.1,1.1,1.1c0.6,0,1.1-0.5,1.1-1.1
				C544.5,1594.8,544,1594.3,543.4,1594.3z M548.8,1594.3v2.2h4.3v-2.2H548.8z M555.3,1594.3v2.2h15.2v-2.2H555.3z M543.4,1598.7
				c-0.6,0-1.1,0.5-1.1,1.1c0,0.6,0.5,1.1,1.1,1.1c0.6,0,1.1-0.5,1.1-1.1C544.5,1599.1,544,1598.7,543.4,1598.7z M557.5,1598.7v2.2
				h8.7v-2.2H557.5z M543.4,1603c-0.6,0-1.1,0.5-1.1,1.1c0,0.6,0.5,1.1,1.1,1.1c0.6,0,1.1-0.5,1.1-1.1
				C544.5,1603.5,544,1603,543.4,1603z M557.5,1603v2.2h13v-2.2H557.5z M572.6,1603v2.2h2.2v-2.2H572.6z M543.4,1607.3
				c-0.6,0-1.1,0.5-1.1,1.1c0,0.6,0.5,1.1,1.1,1.1c0.6,0,1.1-0.5,1.1-1.1C544.5,1607.8,544,1607.3,543.4,1607.3z M557.5,1607.3v2.2
				h13v-2.2H557.5z M572.6,1607.3v2.2h2.2v-2.2H572.6z M543.4,1611.7c-0.6,0-1.1,0.5-1.1,1.1c0,0.6,0.5,1.1,1.1,1.1
				c0.6,0,1.1-0.5,1.1-1.1C544.5,1612.2,544,1611.7,543.4,1611.7z M557.5,1611.7v2.2h4.3v-2.2H557.5z M543.4,1616
				c-0.6,0-1.1,0.5-1.1,1.1c0,0.6,0.5,1.1,1.1,1.1c0.6,0,1.1-0.5,1.1-1.1C544.5,1616.5,544,1616,543.4,1616z M548.8,1616v2.2h17.3
				v-2.2H548.8z M568.3,1616v2.2h4.3v-2.2H568.3z M543.4,1620.3c-0.6,0-1.1,0.5-1.1,1.1c0,0.6,0.5,1.1,1.1,1.1
				c0.6,0,1.1-0.5,1.1-1.1C544.5,1620.8,544,1620.3,543.4,1620.3z M548.8,1620.3v2.2h10.8v-2.2H548.8z M561.8,1620.3v2.2h17.3v-2.2
				H561.8z"/>
		</g>
	</g>
	<g>
		<path fill="#F06700" d="M333,113.6c0.1,0,0.2,0,0.3,0.1l14.4,11.4c0.1,0.1,0.2,0.2,0.2,0.3c0,0.1-0.1,0.3-0.2,0.4l-14.4,13.2
			c-0.2,0.2-0.5,0.2-0.7,0c-0.2-0.2-0.2-0.5,0-0.7l14-12.8l-14-11c-0.2-0.2-0.2-0.5-0.1-0.7C332.8,113.6,332.9,113.6,333,113.6z"/>
		<path fill="#F06700" d="M265.1,113.7c0.2,0.2,0.1,0.5-0.1,0.7l-14,11l14,12.8c0.2,0.2,0.2,0.5,0,0.7c-0.2,0.2-0.5,0.2-0.7,0
			L250,125.7c-0.1-0.1-0.2-0.2-0.2-0.4c0-0.1,0.1-0.3,0.2-0.3l14.4-11.4c0.1-0.1,0.2-0.1,0.3-0.1
			C264.9,113.6,265.1,113.6,265.1,113.7z"/>
		<path fill="#F06700" d="M346.7,125.8h-95.2c-0.2,0-0.4-0.2-0.4-0.5c0-0.3,0.2-0.5,0.4-0.5h95.2c0.2,0,0.4,0.2,0.4,0.5
			C347.1,125.6,346.9,125.8,346.7,125.8z"/>
	</g>
	<text transform="matrix(1 0 0 1 211.7297 496.7112)" fill="#FFFFFF" font-family="'Helvetica-Bold'" font-size="16.1678">Kurento</text>
	<text transform="matrix(1 0 0 1 306.3498 471.9621)" fill="#FFFFFF" font-family="'Helvetica-Bold'" font-size="16.1678">Orion</text>
	<text transform="matrix(1 0 0 1 247.7766 246.0647)" fill="#F06700" font-family="'Helvetica-Bold'" font-size="16.1678">Orion Bridge</text>
	<text transform="matrix(1 0 0 1 141.9899 75.239)" fill="#F06700" font-family="'Helvetica-Bold'" font-size="16.1678">Sensors IOT</text>
	<text transform="matrix(1 0 0 1 356.0285 65.5378)"><tspan x="0" y="0" fill="#F06700" font-family="'Helvetica-Bold'" font-size="16.1678">MAX Client</tspan><tspan x="8.5" y="19.4" fill="#F06700" font-family="'Helvetica-Bold'" font-size="16.1678">Software</tspan></text>
	<g>
		<path fill="none" stroke="#FFFFFF" stroke-miterlimit="10" d="M431.2,823.4c0-2.6-2.3-4.9-6.2-7v-4h0c0-0.1,0-0.3,0-0.4
			c0-6.3-16.3-11.4-36.3-11.4c-20,0-36.3,5.1-36.3,11.4c0,0.1,0,0.3,0,0.4h0v4.3c-4.3,1.9-6.2,3.9-6.2,6.7c0,0.2,0,0.3,0,0.5h0v9.9
			h0c0.2,7.3,19.2,13.2,42.5,13.2c23.3,0,42.3-5.9,42.5-13.2h0v-9.9h0C431.1,823.7,431.2,823.6,431.2,823.4z M356.5,809.4
			c1.6-1.2,4.1-2.3,7.1-3.3c6.6-2.1,15.5-3.2,25-3.2s18.3,1.1,25,3.2c6.2,2,9,4.4,9,5.9c0,0,0,0.1,0,0.2c-0.1,0.7-0.7,1.5-1.8,2.3
			c-1.4,1-3.4,2.1-5.9,2.9l0,0c-0.2,0.1-0.3,0.1-0.5,0.2l0,0l0,0c-0.2,0.1-0.3,0.1-0.5,0.2l0,0l0,0c-0.2,0-0.3,0.1-0.5,0.1l-0.1,0
			l-0.1,0c-0.2,0-0.3,0.1-0.5,0.1l-0.1,0l-0.1,0c-0.2,0-0.3,0.1-0.5,0.1l-0.1,0l-0.1,0c-0.1,0-0.3,0.1-0.4,0.1l-0.1,0l-0.1,0
			c-0.1,0-0.3,0.1-0.4,0.1l-0.1,0l-0.1,0c-0.1,0-0.3,0.1-0.4,0.1l0,0l-0.2,0c-0.1,0-0.3,0.1-0.4,0.1l-0.2,0.1
			c-0.1,0-0.3,0.1-0.4,0.1l-0.3,0.1c-0.1,0-0.3,0.1-0.4,0.1l-0.3,0.1c-0.1,0-0.3,0.1-0.4,0.1c-0.1,0-0.2,0-0.3,0.1
			c-0.1,0-0.3,0.1-0.4,0.1c-0.1,0-0.2,0-0.3,0.1c-0.1,0-0.3,0.1-0.4,0.1c-0.1,0-0.2,0-0.3,0.1c-0.1,0-0.3,0-0.4,0.1
			c-0.1,0-0.2,0-0.3,0.1c-0.1,0-0.3,0-0.4,0.1c-0.1,0-0.2,0-0.3,0.1c-0.1,0-0.3,0-0.4,0.1c-0.1,0-0.2,0-0.3,0.1
			c-0.1,0-0.3,0-0.4,0.1c-0.1,0-0.2,0-0.4,0c-0.1,0-0.3,0-0.4,0.1c-0.1,0-0.2,0-0.3,0l0,0c-0.1,0-0.3,0-0.4,0.1c-0.1,0-0.2,0-0.4,0
			c-0.1,0-0.3,0-0.4,0c-0.1,0-0.3,0-0.4,0l0,0c-0.1,0-0.3,0-0.4,0c-0.1,0-0.2,0-0.4,0l0,0l0,0c-0.1,0-0.3,0-0.4,0
			c-0.1,0-0.2,0-0.3,0l-0.1,0l-0.1,0c-0.1,0-0.2,0-0.3,0c-0.1,0-0.2,0-0.3,0l-0.1,0l-0.1,0c-0.1,0-0.2,0-0.3,0c-0.1,0-0.2,0-0.3,0
			l-0.1,0l-0.1,0c-0.1,0-0.2,0-0.3,0c-0.1,0-0.2,0-0.4,0l-0.1,0l-0.1,0c-0.1,0-0.2,0-0.3,0c-0.1,0-0.2,0-0.3,0l-0.1,0l-0.1,0
			c-0.1,0-0.2,0-0.3,0c-0.1,0-0.2,0-0.3,0l-0.1,0l-0.1,0c-0.1,0-0.2,0-0.3,0c-0.1,0-0.2,0-0.3,0l-0.1,0l-0.1,0c-0.1,0-0.2,0-0.3,0
			c-0.1,0-0.2,0-0.4,0l-0.1,0l-0.1,0c-0.1,0-0.2,0-0.3,0c-0.1,0-0.3,0-0.4,0l-0.1,0l-0.1,0l-0.2,0c-0.1,0-0.3,0-0.4,0l-0.1,0l-0.1,0
			l-0.2,0c-0.2,0-0.4,0-0.6,0l-0.1,0l-0.1,0l-0.2,0c-0.3,0-0.6,0-0.9,0c-0.3,0-0.6,0-0.9,0l-0.2,0l-0.1,0l-0.1,0c-0.2,0-0.4,0-0.6,0
			l-0.2,0l-0.1,0l-0.1,0c-0.1,0-0.3,0-0.4,0l-0.2,0l-0.1,0l-0.1,0c-0.1,0-0.3,0-0.4,0c-0.1,0-0.2,0-0.3,0l-0.1,0l-0.1,0
			c-0.1,0-0.2,0-0.4,0c-0.1,0-0.2,0-0.3,0l-0.1,0l-0.1,0c-0.1,0-0.2,0-0.3,0c-0.1,0-0.2,0-0.3,0l-0.1,0l-0.1,0c-0.1,0-0.2,0-0.3,0
			c-0.1,0-0.2,0-0.3,0l-0.1,0l-0.1,0c-0.1,0-0.2,0-0.3,0c-0.1,0-0.2,0-0.3,0l-0.1,0l-0.1,0c-0.1,0-0.2,0-0.4,0c-0.1,0-0.2,0-0.3,0
			l-0.1,0l-0.1,0c-0.1,0-0.2,0-0.3,0c-0.1,0-0.2,0-0.3,0l-0.1,0l-0.1,0c-0.1,0-0.2,0-0.3,0c-0.1,0-0.2,0-0.3,0l-0.1,0l-0.1,0
			c-0.1,0-0.2,0-0.3,0c-0.1,0-0.3,0-0.4,0l0,0l0,0c-0.1,0-0.2,0-0.4,0c-0.1,0-0.3,0-0.4,0l0,0c-0.1,0-0.3,0-0.4,0
			c-0.1,0-0.3,0-0.4,0l0,0c-0.1,0-0.2,0-0.3,0c-0.1,0-0.3,0-0.4-0.1c-0.1,0-0.2,0-0.4,0c-0.1,0-0.3,0-0.4-0.1c-0.1,0-0.2,0-0.4,0
			c-0.1,0-0.3,0-0.4-0.1c-0.1,0-0.2,0-0.3-0.1c-0.1,0-0.3,0-0.4-0.1c-0.1,0-0.2,0-0.3-0.1c-0.1,0-0.3,0-0.4-0.1
			c-0.1,0-0.2,0-0.3-0.1c-0.1,0-0.3,0-0.4-0.1c-0.1,0-0.2,0-0.3-0.1c-0.1,0-0.3-0.1-0.4-0.1c-0.1,0-0.2,0-0.3-0.1
			c-0.1,0-0.3-0.1-0.4-0.1c-0.1,0-0.2,0-0.3-0.1c-0.1,0-0.3-0.1-0.4-0.1l-0.3-0.1c-0.1,0-0.3-0.1-0.4-0.1l-0.2-0.1
			c-0.1,0-0.3-0.1-0.4-0.1l-0.2,0l0,0c-0.1,0-0.3-0.1-0.4-0.1l-0.2,0l0,0c-0.1,0-0.3-0.1-0.4-0.1l-0.2,0l0,0c-0.1,0-0.3-0.1-0.4-0.1
			l-0.1,0l-0.1,0c-0.2,0-0.3-0.1-0.4-0.1l-0.1,0l-0.1,0c-0.2,0-0.3-0.1-0.5-0.1l-0.1,0l-0.1,0c-0.2,0-0.3-0.1-0.5-0.1l-0.1,0l-0.1,0
			c-0.2,0-0.3-0.1-0.5-0.1l0,0l0,0c-0.2-0.1-0.3-0.1-0.5-0.2l0,0l0,0c-0.2-0.1-0.3-0.1-0.5-0.2l0,0c-5.5-1.9-7.6-4-7.7-5.3
			c0-0.1,0-0.1,0-0.2C354.6,811.3,355.3,810.4,356.5,809.4z M428.8,823.9c-0.2,0.8-0.9,1.7-1.7,2.3c-0.2,0.2-0.5,0.4-0.7,0.5
			c-1.9,1.4-4.8,2.8-8.4,3.9c-7.8,2.5-18.3,3.8-29.4,3.8c-11.1,0-21.6-1.4-29.4-3.8c-3.6-1.1-6.5-2.5-8.4-3.9
			c-0.2-0.2-0.5-0.3-0.7-0.5c-0.7-0.6-1.5-1.5-1.7-2.3c0-0.2-0.1-0.3-0.1-0.5c0-1.3,1.3-2.5,2.4-3.4c0.5-0.3,1-0.7,1.5-1v1.9h0
			c0.2,6.2,16.4,11.3,36.3,11.3c19.9,0,36.1-5,36.3-11.3h0V819c0.6,0.3,1.1,0.7,1.5,1c1.1,0.8,2.4,2.1,2.4,3.4
			C428.9,823.6,428.8,823.7,428.8,823.9z"/>
	</g>
	<g transform="translate(0,-1020.3622)">
		<g transform="translate(-169,-452)">
			<path fill="#FFFFFF" stroke="#000000" stroke-width="0.7" stroke-miterlimit="10" d="M718.3,2265.8c-0.5,0.2-0.8,0.6-0.7,1.1
				v58.5c0,0.6,0.5,1.1,1.1,1.1h58.5c0.6,0,1.1-0.5,1.1-1.1v-44.5v-14c0-0.6-0.5-1.1-1.1-1.1h-58.5
				C718.5,2265.8,718.4,2265.8,718.3,2265.8z M719.7,2268h56.4v6.5h-56.4V2268z M722.9,2270.2c-0.6,0-1.1,0.5-1.1,1.1
				c0,0.6,0.5,1.1,1.1,1.1s1.1-0.5,1.1-1.1C724,2270.6,723.5,2270.2,722.9,2270.2z M727.3,2270.2c-0.6,0-1.1,0.5-1.1,1.1
				s0.5,1.1,1.1,1.1c0.6,0,1.1-0.5,1.1-1.1S727.9,2270.2,727.3,2270.2z M731.6,2270.2c-0.6,0-1.1,0.5-1.1,1.1s0.5,1.1,1.1,1.1
				s1.1-0.5,1.1-1.1S732.2,2270.2,731.6,2270.2z M719.7,2276.7h56.4v4.3v43.4h-56.4V2276.7z M722.9,2278.8c-0.6,0-1.1,0.5-1.1,1.1
				c0,0.6,0.5,1.1,1.1,1.1s1.1-0.5,1.1-1.1C724,2279.3,723.5,2278.8,722.9,2278.8z M728.4,2278.8v2.2h10.8v-2.2H728.4z
				 M741.4,2278.8v2.2h4.3v-2.2H741.4z M747.9,2278.8v2.2h21.7v-2.2H747.9z M722.9,2283.2c-0.6,0-1.1,0.5-1.1,1.1
				c0,0.6,0.5,1.1,1.1,1.1s1.1-0.5,1.1-1.1C724,2283.7,723.5,2283.2,722.9,2283.2z M728.4,2283.2v2.2h2.2v-2.2H728.4z M732.7,2283.2
				v2.2H750v-2.2H732.7z M752.2,2283.2v2.2h2.2v-2.2H752.2z M756.5,2283.2v2.2h8.7v-2.2H756.5z M722.9,2287.5
				c-0.6,0-1.1,0.5-1.1,1.1c0,0.6,0.5,1.1,1.1,1.1s1.1-0.5,1.1-1.1C724,2288,723.5,2287.5,722.9,2287.5z M728.4,2287.5v2.2h17.3
				v-2.2H728.4z M722.9,2291.8c-0.6,0-1.1,0.5-1.1,1.1c0,0.6,0.5,1.1,1.1,1.1s1.1-0.5,1.1-1.1C724,2292.3,723.5,2291.8,722.9,2291.8
				z M728.4,2291.8v2.2h4.3v-2.2H728.4z M734.9,2291.8v2.2H750v-2.2H734.9z M722.9,2296.2c-0.6,0-1.1,0.5-1.1,1.1
				c0,0.6,0.5,1.1,1.1,1.1s1.1-0.5,1.1-1.1C724,2296.7,723.5,2296.2,722.9,2296.2z M737,2296.2v2.2h8.7v-2.2H737z M722.9,2300.5
				c-0.6,0-1.1,0.5-1.1,1.1c0,0.6,0.5,1.1,1.1,1.1s1.1-0.5,1.1-1.1C724,2301,723.5,2300.5,722.9,2300.5z M737,2300.5v2.2h13v-2.2
				H737z M752.2,2300.5v2.2h2.2v-2.2H752.2z M722.9,2304.9c-0.6,0-1.1,0.5-1.1,1.1c0,0.6,0.5,1.1,1.1,1.1s1.1-0.5,1.1-1.1
				C724,2305.3,723.5,2304.9,722.9,2304.9z M737,2304.9v2.2h13v-2.2H737z M752.2,2304.9v2.2h2.2v-2.2H752.2z M722.9,2309.2
				c-0.6,0-1.1,0.5-1.1,1.1c0,0.6,0.5,1.1,1.1,1.1s1.1-0.5,1.1-1.1C724,2309.7,723.5,2309.2,722.9,2309.2z M737,2309.2v2.2h4.3v-2.2
				H737z M722.9,2313.5c-0.6,0-1.1,0.5-1.1,1.1c0,0.6,0.5,1.1,1.1,1.1s1.1-0.5,1.1-1.1C724,2314,723.5,2313.5,722.9,2313.5z
				 M728.4,2313.5v2.2h17.3v-2.2H728.4z M747.9,2313.5v2.2h4.3v-2.2H747.9z M722.9,2317.9c-0.6,0-1.1,0.5-1.1,1.1
				c0,0.6,0.5,1.1,1.1,1.1s1.1-0.5,1.1-1.1C724,2318.4,723.5,2317.9,722.9,2317.9z M728.4,2317.9v2.2h10.8v-2.2H728.4z
				 M741.4,2317.9v2.2h17.3v-2.2H741.4z"/>
		</g>
	</g>
	<g>
		<path fill="#055EB5" d="M514.6,811.1c0.1,0,0.2,0,0.3,0.1l14.4,11.4c0.1,0.1,0.2,0.2,0.2,0.3c0,0.1-0.1,0.3-0.2,0.4l-14.4,13.2
			c-0.2,0.2-0.5,0.2-0.7,0c-0.2-0.2-0.2-0.5,0-0.7l14-12.8l-14-11c-0.2-0.2-0.2-0.5-0.1-0.7C514.3,811.2,514.5,811.1,514.6,811.1z"
			/>
		<path fill="#055EB5" d="M466.7,811.3c0.2,0.2,0.1,0.5-0.1,0.7l-14,11l14,12.8c0.2,0.2,0.2,0.5,0,0.7c-0.2,0.2-0.5,0.2-0.7,0
			l-14.4-13.2c-0.1-0.1-0.2-0.2-0.2-0.4c0-0.1,0.1-0.3,0.2-0.3l14.4-11.4c0.1-0.1,0.2-0.1,0.3-0.1
			C466.5,811.1,466.6,811.2,466.7,811.3z"/>
		<path fill="#055EB5" d="M529.2,823.4h-77.4c-0.2,0-0.3-0.2-0.3-0.5s0.1-0.5,0.3-0.5h77.4c0.2,0,0.3,0.2,0.3,0.5
			S529.4,823.4,529.2,823.4z"/>
	</g>
	<text transform="matrix(1 0 0 1 342.5495 772.1682)" fill="#055EB5" font-family="'Helvetica-Bold'" font-size="16.1678">Sensors IOT</text>
	<text transform="matrix(1 0 0 1 534.5866 762.468)"><tspan x="0" y="0" fill="#055EB5" font-family="'Helvetica-Bold'" font-size="16.1678">MAX Client</tspan><tspan x="8.5" y="19.4" fill="#055EB5" font-family="'Helvetica-Bold'" font-size="16.1678">Software</tspan></text>
	<g transform="translate(0,-952.36218)">
		<path fill="none" stroke="#FFFFFF" stroke-miterlimit="10" d="M312.7,1210.3c-2.6,0-5.3,1-7.3,3c-3,3-3.7,7.3-2.3,11l-18.1,11.8
			c-4-3.5-10.2-3.3-14,0.5c-4,4-4,10.6,0,14.6c3.8,3.8,10,4,14,0.5l18.1,11.8c-1.4,3.7-0.7,8.1,2.3,11.1c4,4,10.6,4,14.6,0
			c4-4,4-10.6,0-14.6c-3.9-3.9-10.3-4-14.3-0.3l-18-11.7c1.1-2.6,1.1-5.6,0-8.2l18-11.7c4,3.7,10.4,3.7,14.3-0.3c4-4,4-10.6,0-14.6
			C318,1211.3,315.4,1210.3,312.7,1210.3L312.7,1210.3z M312.7,1214.8c1.5,0,2.9,0.6,4.1,1.7c2.3,2.3,2.3,5.9,0,8.1
			c-2.3,2.3-5.9,2.3-8.1,0c-2.3-2.3-2.3-5.8,0-8.1C309.8,1215.4,311.3,1214.8,312.7,1214.8z M278.3,1238.2c1.5,0,2.9,0.6,4.1,1.7
			c2.3,2.3,2.3,5.9,0,8.1c-2.3,2.3-5.8,2.3-8.1,0c-2.3-2.3-2.3-5.8,0-8.1C275.4,1238.8,276.8,1238.2,278.3,1238.2z M312.7,1261.5
			c1.5,0,2.9,0.6,4.1,1.7c2.3,2.3,2.3,5.9,0,8.1c-2.3,2.3-5.9,2.3-8.1,0c-2.3-2.3-2.3-5.8,0-8.1
			C309.8,1262.1,311.3,1261.5,312.7,1261.5z"/>
	</g>
	<g>
		<path fill="#055EB5" d="M426.5,617.9c0.1,0,0.2,0,0.3-0.1l14.4-11.4c0.1-0.1,0.2-0.2,0.2-0.3c0-0.1-0.1-0.3-0.2-0.4l-14.4-13.2
			c-0.2-0.2-0.5-0.2-0.7,0c-0.2,0.2-0.2,0.5,0,0.7l14,12.8l-14,11c-0.2,0.2-0.2,0.5-0.1,0.7C426.2,617.8,426.4,617.9,426.5,617.9z"
			/>
		
			<circle fill="none" stroke="#055EB5" stroke-width="0.7" stroke-linecap="round" stroke-miterlimit="10" cx="391.2" cy="732.6" r="2.8"/>
		<path fill="none" stroke="#055EB5" stroke-width="0.7" stroke-linecap="round" stroke-miterlimit="10" d="M391.2,729.7v-80.8
			c0-23.6,19.2-42.8,42.8-42.8h5.7"/>
	</g>
	<g>
		<path fill="#055EB5" d="M545.1,617.9c-0.1,0-0.2,0-0.3-0.1l-14.4-11.4c-0.1-0.1-0.2-0.2-0.2-0.3c0-0.1,0.1-0.3,0.2-0.4l14.4-13.2
			c0.2-0.2,0.5-0.2,0.7,0c0.2,0.2,0.2,0.5,0,0.7l-14,12.8l14,11c0.2,0.2,0.2,0.5,0.1,0.7C545.4,617.8,545.2,617.9,545.1,617.9z"/>
		
			<circle fill="none" stroke="#055EB5" stroke-width="0.7" stroke-linecap="round" stroke-miterlimit="10" cx="580.4" cy="732.6" r="2.8"/>
		<path fill="none" stroke="#055EB5" stroke-width="0.7" stroke-linecap="round" stroke-miterlimit="10" d="M580.4,729.7v-80.8
			c0-23.6-19.2-42.8-42.8-42.8h-5.7"/>
	</g>
	<g>
		<path fill="#F06700" d="M231.3,267.9c0.1,0,0.2,0,0.3,0.1l14.4,11.4c0.1,0.1,0.2,0.2,0.2,0.3c0,0.1-0.1,0.3-0.2,0.4l-14.4,13.2
			c-0.2,0.2-0.5,0.2-0.7,0c-0.2-0.2-0.2-0.5,0-0.7l14-12.8l-14-11c-0.2-0.2-0.2-0.5-0.1-0.7C231,268,231.2,267.9,231.3,267.9z"/>
		
			<circle fill="none" stroke="#F06700" stroke-width="0.7" stroke-linecap="round" stroke-miterlimit="10" cx="189.6" cy="173.8" r="2.8"/>
		<path fill="none" stroke="#F06700" stroke-width="0.7" stroke-linecap="round" stroke-miterlimit="10" d="M189.6,176.6v60.3
			c0,23.6,19.2,42.8,42.8,42.8h12.7"/>
	</g>
	<g>
		<path fill="#F06700" d="M357.5,270.7c-0.1,0-0.2,0-0.3,0.1l-14.4,11.4c-0.1,0.1-0.2,0.2-0.2,0.3c0,0.1,0.1,0.3,0.2,0.4l14.4,13.2
			c0.2,0.2,0.5,0.2,0.7,0c0.2-0.2,0.2-0.5,0-0.7l-14-12.8l14-11c0.2-0.2,0.2-0.5,0.1-0.7C357.8,270.8,357.6,270.7,357.5,270.7z"/>
		
			<circle fill="none" stroke="#F06700" stroke-width="0.7" stroke-linecap="round" stroke-miterlimit="10" cx="399.2" cy="176.6" r="2.8"/>
		<path fill="none" stroke="#F06700" stroke-width="0.7" stroke-linecap="round" stroke-miterlimit="10" d="M399.2,179.5v60.3
			c0,23.6-19.2,42.8-42.8,42.8h-12.7"/>
	</g>
	<text transform="matrix(1 0 0 1 439.3356 563.8665)" fill="#055EB5" font-family="'Helvetica-Bold'" font-size="16.1678">Orion Bridge</text>
	<g transform="translate(0,-952.36218)">
		<path fill="none" stroke="#FFFFFF" stroke-miterlimit="10" d="M504.3,1531c-2.6,0-5.3,1-7.3,3c-3,3-3.7,7.3-2.3,11l-18.1,11.8
			c-4-3.5-10.2-3.3-14,0.5c-4,4-4,10.6,0,14.6c3.8,3.8,10,4,14,0.5l18.1,11.8c-1.4,3.7-0.7,8.1,2.3,11.1c4,4,10.6,4,14.6,0
			c4-4,4-10.6,0-14.6c-3.9-3.9-10.3-4-14.3-0.3l-18-11.7c1.1-2.6,1.1-5.6,0-8.2l18-11.7c4,3.7,10.4,3.7,14.3-0.3c4-4,4-10.6,0-14.6
			C509.6,1532,506.9,1531,504.3,1531L504.3,1531z M504.3,1535.5c1.5,0,2.9,0.6,4.1,1.7c2.3,2.3,2.3,5.9,0,8.1s-5.9,2.3-8.1,0
			c-2.3-2.3-2.3-5.8,0-8.1C501.4,1536.1,502.8,1535.5,504.3,1535.5z M469.8,1558.9c1.5,0,2.9,0.6,4.1,1.7c2.3,2.3,2.3,5.9,0,8.1
			c-2.3,2.3-5.8,2.3-8.1,0c-2.3-2.3-2.3-5.8,0-8.1C466.9,1559.5,468.4,1558.9,469.8,1558.9z M504.3,1582.2c1.5,0,2.9,0.6,4.1,1.7
			c2.3,2.3,2.3,5.9,0,8.1c-2.3,2.3-5.9,2.3-8.1,0c-2.3-2.3-2.3-5.8,0-8.1C501.4,1582.8,502.8,1582.2,504.3,1582.2z"/>
	</g>
	<g>
		<g>
			<path fill="#FFFFFF" stroke="#212121" stroke-width="3.2" stroke-miterlimit="10" d="M363.5,522.4H229.4
				c-16,0-29.8-5.2-37.6-13.6c-5.2-5.6-7.3-12.7-6.6-20.4c1.9-16,15.5-27.5,32.4-27.5c2.6,0,4.9,0.2,7.5,0.7
				c-0.7-26.8,20-47.2,42.5-54.3c4.9-1.6,10.1-2.3,15.3-2.3c20.4,0,40.9,11.5,49.6,27.5c4-2.1,8.5-3.1,12.9-3.1
				c7.5,0,15.3,3.1,20.7,8.2c8,7.5,9.4,20.2,6.6,29.4c10.8,3.8,20.9,15.5,20,30.1C391.7,511.3,379,522.4,363.5,522.4z M217.6,468.1
				c-13.2,0-23.5,8.7-24.9,20.9c-0.7,5.6,0.9,10.6,4.7,14.6c6.3,7,18.1,11,31.9,11h134.1c11.7,0,20.9-7.8,21.6-18.3
				c0.7-12-8.9-22.1-18.3-23.3l-5.9-0.7l3.1-5.2c3.8-6.3,3.3-18.3-3.3-24.7c-4-3.8-9.6-6.1-15.5-6.1c-4.5,0-8.7,1.4-12.2,4l-4,2.8
				l-1.9-4.7c-5.9-15-25.4-26.8-44.4-26.8c-4.5,0-8.9,0.7-13.2,1.9c-20.7,7.3-39.9,27.2-36.4,52.4l0.9,6.3l-5.9-2.3
				C224.7,468.8,221.1,468.1,217.6,468.1z"/>
		</g>
	</g>
	<g>
		<path fill="none" stroke="#FFFFFF" stroke-miterlimit="10" d="M98.2,834.7h-0.4c8.3-4.6,14-13.5,14-23.7c0-14.9-12.1-27-27-27
			s-27,12.1-27,27c0,10.2,5.6,19.1,14,23.7h-0.4c-9.3,0-16.9,7.6-16.9,16.9h10.2c0.9-5.8,2.6-6.8,8.7-6.8h23.2c6,0,7.8,1,8.7,6.8
			h10.2C115.1,842.3,107.6,834.7,98.2,834.7z M84.7,828c-9.3,0-16.9-7.6-16.9-16.9c0-9.3,7.6-16.9,16.9-16.9s16.9,7.6,16.9,16.9
			C101.6,820.4,94,828,84.7,828z"/>
		<path fill="none" stroke="#FFFFFF" stroke-miterlimit="10" d="M84.7,800.9c-5.6,0-10.2,4.5-10.2,10.2c0,5.6,4.5,10.2,10.2,10.2
			c5.6,0,10.2-4.5,10.2-10.2S90.3,800.9,84.7,800.9z M82.7,809c-1.7,1.7-3.7,2.5-4.5,1.7c-0.8-0.8,0-2.8,1.7-4.5
			c1.7-1.7,3.7-2.5,4.5-1.7C85.2,805.3,84.4,807.3,82.7,809z"/>
	</g>
	<g>
		<path fill="none" stroke="#FFFFFF" stroke-miterlimit="10" d="M122.3,576.3H47.1c-2.3,0-4.2,1.9-4.2,4.2v55.1
			c0,2.3,1.9,4.2,4.2,4.2h24.3l-1,5.7h-6.4c-0.8,0-1.4,0.6-1.4,1.4c0,0.8,0.6,1.4,1.4,1.4h41.5c0.8,0,1.4-0.6,1.4-1.4
			c0-0.7-0.6-1.4-1.4-1.4H99l-1-5.7h24.3c2.3,0,4.2-1.9,4.2-4.2v-55.1C126.5,578.2,124.6,576.3,122.3,576.3z M81.4,633.6
			c0-1.8,1.5-3.3,3.3-3.3c1.8,0,3.3,1.5,3.3,3.3c0,1.8-1.5,3.3-3.3,3.3C82.9,636.9,81.4,635.4,81.4,633.6z M120.7,627H48.7v-44.1
			h71.9V627z"/>
	</g>
	<g>
		<g>
			<path fill="#055EB5" d="M72,683.6c0-0.1,0-0.2,0.1-0.3l11.4-14.4c0.1-0.1,0.2-0.2,0.3-0.2c0.1,0,0.3,0.1,0.4,0.2l13.2,14.4
				c0.2,0.2,0.2,0.5,0,0.7c-0.2,0.2-0.5,0.2-0.7,0l-12.8-14l-11,14c-0.2,0.2-0.5,0.2-0.7,0.1C72,683.8,72,683.7,72,683.6z"/>
		</g>
		
			<circle fill="none" stroke="#055EB5" stroke-width="0.7" stroke-linecap="round" stroke-miterlimit="10" cx="83.8" cy="732.6" r="2.8"/>
		
			<line fill="none" stroke="#055EB5" stroke-width="0.7" stroke-linecap="round" stroke-miterlimit="10" x1="83.8" y1="729.7" x2="83.8" y2="670.3"/>
	</g>
	<text transform="matrix(1 0 0 1 51.593 766.1682)" fill="#055EB5" font-family="'Helvetica-Bold'" font-size="16.1678">Webcam</text>
	<text transform="matrix(1 0 0 1 43.0705 559.0159)" fill="#055EB5" font-family="'Helvetica-Bold'" font-size="16.1678">Web Client</text>
	<g>
		<g>
			
				<circle fill="none" stroke="#055EB5" stroke-width="0.7" stroke-linecap="round" stroke-miterlimit="10" cx="84.5" cy="524.2" r="2.8"/>
			<path fill="none" stroke="#055EB5" stroke-width="0.7" stroke-linecap="round" stroke-miterlimit="10" d="M173.1,459.3h-35.3
				c-34.7,0-53.9,19.2-53.9,42.8V522"/>
		</g>
		<g>
			<path fill="#055EB5" d="M158.6,471.2c0.1,0,0.2,0,0.3-0.1l14.4-11.4c0.1-0.1,0.2-0.2,0.2-0.3c0-0.1-0.1-0.3-0.2-0.4L159,445.9
				c-0.2-0.2-0.5-0.2-0.7,0c-0.2,0.2-0.2,0.5,0,0.7l14,12.8l-14,11c-0.2,0.2-0.2,0.5-0.1,0.7C158.4,471.1,158.5,471.2,158.6,471.2z"
				/>
		</g>
	</g>
	<g>
		<g>
			
				<circle fill="none" stroke="#055EB5" stroke-width="0.7" stroke-linecap="round" stroke-miterlimit="10" cx="481.7" cy="524.3" r="2.8"/>
			<path fill="none" stroke="#055EB5" stroke-width="0.7" stroke-linecap="round" stroke-miterlimit="10" d="M393.1,459.3h35.3
				c34.7,0,53.9,19.2,53.9,42.8V522"/>
		</g>
		<g>
			<path fill="#055EB5" d="M407.6,471.2c-0.1,0-0.2,0-0.3-0.1l-14.4-11.4c-0.1-0.1-0.2-0.2-0.2-0.3c0-0.1,0.1-0.3,0.2-0.4l14.4-13.2
				c0.2-0.2,0.5-0.2,0.7,0c0.2,0.2,0.2,0.5,0,0.7l-14,12.8l14,11c0.2,0.2,0.2,0.5,0.1,0.7C407.8,471.1,407.7,471.2,407.6,471.2z"/>
		</g>
	</g>
	<g>
		<text transform="matrix(1 0 0 1 283.6769 119.5212)" fill="#DEDEDE" font-family="'Avenir-Light'" font-size="14.551">OSC</text>
	</g>
	<g>
		<text transform="matrix(1 0 0 1 475.236 815.9192)" fill="#DEDEDE" font-family="'Avenir-Light'" font-size="14.551">OSC</text>
	</g>
	<g>
		<text transform="matrix(0 1 -1 0 406.3034 205.157)" fill="#DEDEDE" font-family="'Avenir-Light'" font-size="14.551">OSC</text>
	</g>
	<g>
		<text transform="matrix(0 -1 1 0 182.6833 235.6267)" fill="#DEDEDE" font-family="'Avenir-Light'" font-size="14.551">OSC</text>
	</g>
	<g>
		<text transform="matrix(0 1 -1 0 588.862 659.594)" fill="#DEDEDE" font-family="'Avenir-Light'" font-size="14.551">OSC</text>
	</g>
	<g>
		<text transform="matrix(0 -1 1 0 384.2429 690.0598)" fill="#DEDEDE" font-family="'Avenir-Light'" font-size="14.551">OSC</text>
	</g>
	<g>
		<path fill="#FFFFFF" d="M282.9,545.1h-6v6.4c0,0.2-0.2,0.4-0.4,0.4h-1c-0.2,0-0.4-0.2-0.4-0.4v-10.7c0-2.6,1.4-3.7,4.2-3.7
			c1.2,0,3,0,3.8,0.1c0.1,0,0.2,0.2,0.2,0.3v1c0,0.1-0.1,0.2-0.2,0.2h-3.8c-2.1,0-2.4,0.5-2.4,2v2.7h6c0.2,0,0.4,0.2,0.4,0.4v0.7
			C283.2,544.9,283.1,545.1,282.9,545.1"/>
		<path fill="#FFFFFF" d="M287.5,551.9h-1.1c-0.2,0-0.4-0.2-0.4-0.4v-13.8c0-0.2,0.1-0.4,0.4-0.4h1.1c0.2,0,0.4,0.2,0.4,0.4v13.8
			C287.8,551.7,287.7,551.9,287.5,551.9"/>
		<path fill="#FFFFFF" d="M301.8,552c-1,0-2-0.1-3.1-0.5c-1.1,0.4-2,0.5-3.1,0.5c-3,0-4.2-1.9-4.2-5.4v-9c0-0.2,0.2-0.4,0.4-0.4h1
			c0.2,0,0.4,0.2,0.4,0.4v9c0,2.7,0.5,3.9,2.8,3.9c0.3,0,1.4-0.1,1.8-0.2v-12.7c0-0.2,0.2-0.4,0.4-0.4h1.1c0.2,0,0.4,0.1,0.4,0.4
			v12.7c0.4,0.1,1.5,0.2,1.8,0.2c2.2,0,2.8-1.2,2.8-3.9v-9c0-0.2,0.2-0.4,0.4-0.4h1c0.2,0,0.4,0.2,0.4,0.4v9
			C305.9,550.1,304.8,552,301.8,552"/>
		<path fill="#FFFFFF" d="M318.2,551.9h-1.1c-0.2,0-0.4-0.2-0.4-0.4v-5.8h-6v5.8c0,0.2-0.1,0.4-0.4,0.4h-1.1c-0.2,0-0.4-0.2-0.4-0.4
			v-10.3c0-3,1.4-4.1,4.2-4.1h1.1c2.8,0,4.2,1.1,4.2,4.1v10.3C318.6,551.7,318.4,551.9,318.2,551.9 M316.8,541.2
			c0-2-0.6-2.5-2.4-2.5h-1.1c-1.8,0-2.4,0.5-2.4,2.5v2.9h6V541.2z"/>
		<path fill="#FFFFFF" d="M331.4,551.9h-1.3c-0.2,0-0.4,0-0.5-0.3l-3.5-5.9h-0.2h-0.3c-0.6,0-1.1,0-2.2-0.1v5.8
			c0,0.2-0.1,0.4-0.4,0.4H322c-0.2,0-0.4-0.2-0.4-0.4v-13.8c0-0.3,0.1-0.4,0.5-0.4c0.8-0.1,2.3-0.2,3.5-0.2c3.1,0,5.5,1,5.5,4.2v0.1
			c0,2.2-1.3,3.5-3.1,4l3.6,6c0,0.1,0.1,0.1,0.1,0.2C331.6,551.8,331.5,551.9,331.4,551.9 M329.3,541.4c0-2-1.3-2.6-3.7-2.6
			c-0.6,0-1.7,0-2.2,0.1v5.4c0.9,0,1.7,0,2.2,0c2.4,0,3.7-0.6,3.7-2.7V541.4z"/>
		<path fill="#FFFFFF" d="M341.9,551.9c-0.7,0.1-2.7,0.1-3.8,0.1c-2.8,0-4.2-1-4.2-3.7v-7.6c0-2.6,1.4-3.7,4.2-3.7
			c1.2,0,3,0,3.8,0.1c0.1,0,0.2,0.2,0.2,0.3v1c0,0.1-0.1,0.2-0.2,0.2h-3.8c-2.1,0-2.4,0.5-2.4,2v2.7h6c0.2,0,0.4,0.2,0.4,0.4v0.7
			c0,0.2-0.2,0.4-0.4,0.4h-6v3.3c0,1.5,0.3,2,2.4,2h3.8c0.1,0,0.2,0.1,0.2,0.2v1C342.1,551.8,342.1,551.9,341.9,551.9"/>
		<path fill="#FFFFFF" d="M260.2,534.5c0.8,0.1,1.4,0.4,2,0.7c0.6,0.3,1,0.8,1.3,1.2c0.3,0.5,0.5,1,0.5,1.6c0,0.6-0.1,1.2-0.5,1.9
			c-0.3,0.6-0.8,1.2-1.4,1.7c-0.6,0.5-1.3,0.9-2,1.3c-0.8,0.3-1.6,0.5-2.4,0.7c-0.8,0.1-1.7,0.1-2.5-0.1c-0.8-0.2-1.5-0.4-2-0.8
			c-0.5-0.4-0.9-0.8-1.2-1.3c-0.3-0.5-0.4-1.1-0.3-1.7c0-0.6,0.2-1.2,0.6-1.8c0.4-0.6,0.8-1.1,1.4-1.6c0.6-0.5,1.2-0.9,1.9-1.2
			c0.7-0.3,1.5-0.5,2.2-0.6C258.6,534.4,259.4,534.4,260.2,534.5"/>
		<path fill="#FFFFFF" d="M260.5,533.8c1.3,0.2,2.4,0.6,3.3,1.2c0.9,0.6,1.7,1.3,2.2,2.1c0.5,0.8,0.9,1.8,0.9,2.8
			c0,1-0.2,2.1-0.7,3.2c-0.6,1.1-1.4,2.2-2.4,3c-1,0.9-2.2,1.6-3.5,2.2c-1.3,0.6-2.7,1-4.2,1.1c-1.4,0.2-2.9,0.1-4.2-0.2
			c-1.3-0.3-2.5-0.8-3.4-1.5c-0.9-0.7-1.5-1.5-1.9-2.4c-0.4-0.9-0.6-1.9-0.5-2.9c0.1-1,0.5-2,1.1-3.1c0.6-1,1.5-1.9,2.4-2.7
			c1-0.8,2.1-1.4,3.3-1.9c1.2-0.5,2.4-0.8,3.7-1C258,533.6,259.3,533.6,260.5,533.8 M253.6,546.3c1.1,0.2,2.2,0.3,3.3,0.1
			c1.1-0.1,2.2-0.4,3.3-0.9c1-0.4,2-1,2.8-1.7c0.8-0.7,1.4-1.5,1.9-2.4c0.4-0.9,0.6-1.7,0.6-2.5c0-0.8-0.3-1.5-0.7-2.2
			c-0.4-0.6-1-1.2-1.8-1.7c-0.7-0.4-1.6-0.8-2.7-0.9c-1-0.2-2.1-0.2-3.1,0c-1,0.1-2,0.4-3,0.8c-0.9,0.4-1.8,0.9-2.6,1.5
			c-0.8,0.6-1.4,1.3-1.9,2.1c-0.5,0.8-0.8,1.6-0.8,2.4c-0.1,0.8,0.1,1.6,0.4,2.3c0.3,0.7,0.9,1.3,1.6,1.8
			C251.7,545.7,252.6,546.1,253.6,546.3"/>
		<path fill="#FFFFFF" d="M270.2,541.8c-0.1-1.5-0.6-2.8-1.4-4c-0.8-1.2-1.9-2.2-3.2-2.9c-1.3-0.8-2.9-1.3-4.7-1.6
			c-1.8-0.3-3.6-0.3-5.4,0c-1.8,0.2-3.5,0.7-5.2,1.4c-1.6,0.7-3.2,1.6-4.6,2.7c-1.4,1.1-2.6,2.4-3.5,3.8c-0.9,1.5-1.5,2.9-1.7,4.4
			c-0.2,1.5,0,2.9,0.5,4.2c0.5,1.3,1.4,2.6,2.6,3.6c1.2,1,2.9,1.8,4.8,2.3c2,0.5,4,0.6,6.1,0.4c2.1-0.2,4.2-0.8,6.1-1.6
			c1.9-0.8,3.7-2,5.2-3.3c1.5-1.3,2.6-2.8,3.4-4.5C270,544.9,270.3,543.3,270.2,541.8 M267.8,544.8c-0.7,1.4-1.7,2.7-2.9,3.8
			c-1.2,1.1-2.7,2-4.3,2.7c-1.6,0.7-3.4,1.2-5.1,1.4c-1.8,0.2-3.5,0.1-5.2-0.3c-1.6-0.4-3-1-4.1-1.9c-1.1-0.8-1.8-1.8-2.3-3
			c-0.5-1.1-0.6-2.3-0.5-3.5c0.1-1.2,0.6-2.5,1.4-3.7c0.8-1.2,1.8-2.3,2.9-3.2c1.2-0.9,2.5-1.7,3.9-2.3c1.4-0.6,2.9-1,4.4-1.2
			c1.5-0.2,3.1-0.2,4.6,0c1.5,0.2,2.9,0.7,4,1.4c1.1,0.7,2.1,1.5,2.7,2.5c0.7,1,1.1,2.2,1.1,3.4
			C268.7,542.1,268.4,543.4,267.8,544.8"/>
		<path fill="#FFFFFF" d="M251.7,539.6c0,0.6,0.1,1.2,0.3,1.7c0.3,0.5,0.7,1,1.2,1.3c0.5,0.4,1.2,0.7,2,0.8c0.8,0.2,1.6,0.2,2.5,0.1
			c0.8-0.1,1.6-0.3,2.4-0.7c0.7-0.3,1.3-0.7,1.9-1.1c-3-1.7-6.5-2.7-10.1-2.9C251.7,539.2,251.7,539.4,251.7,539.6"/>
		<path fill="#FFFFFF" d="M263,543.8c-0.8,0.7-1.8,1.3-2.8,1.7c-1,0.4-2.1,0.7-3.3,0.9c-1.1,0.1-2.3,0.1-3.3-0.1
			c-1.1-0.2-2-0.6-2.7-1.1c-0.7-0.5-1.2-1.1-1.6-1.9c-0.3-0.7-0.5-1.5-0.4-2.3c0.1-0.7,0.3-1.4,0.7-2.2c-0.7,0-1.4,0.1-2.1,0.2
			c-0.1,0.1-0.2,0.3-0.3,0.4c-0.6,1-1,2.1-1.1,3.1c-0.1,1,0.1,2,0.5,2.9c0.4,0.9,1.1,1.7,1.9,2.4c0.9,0.7,2,1.2,3.4,1.5
			c1.4,0.3,2.8,0.4,4.2,0.2c1.4-0.2,2.9-0.6,4.2-1.1c1.3-0.6,2.5-1.3,3.5-2.2c0.6-0.6,1.2-1.2,1.7-1.9c-0.6-0.5-1.1-0.9-1.7-1.3
			C263.6,543.3,263.3,543.6,263,543.8"/>
		<path fill="#FFFFFF" d="M267.2,545.7c-0.6,1-1.4,1.9-2.4,2.8c-1.2,1.1-2.7,2-4.3,2.7c-1.6,0.7-3.4,1.2-5.1,1.4
			c-1.7,0.2-3.5,0.1-5.2-0.3c-1.6-0.4-3-1-4.1-1.9c-1.1-0.8-1.8-1.8-2.3-3c-0.5-1.1-0.6-2.3-0.5-3.5c0.1-1.2,0.6-2.5,1.4-3.7
			c0.2-0.3,0.4-0.6,0.6-0.8c-0.8,0.2-1.6,0.4-2.3,0.6c-0.3,0.3-0.5,0.7-0.7,1c-0.9,1.5-1.5,2.9-1.7,4.4c-0.2,1.5,0,2.9,0.5,4.2
			c0.5,1.3,1.4,2.6,2.6,3.6c1.2,1,2.9,1.8,4.8,2.3c1.9,0.5,4,0.6,6.1,0.4c2.1-0.2,4.2-0.8,6.1-1.6c1.9-0.8,3.7-2,5.2-3.3
			c1.2-1.1,2.2-2.3,2.9-3.6C268.3,546.8,267.8,546.3,267.2,545.7"/>
	</g>
	<path fill="none" stroke="#FFFFFF" stroke-width="1.3" stroke-miterlimit="10" d="M252.8,419.6c-1.6,29.5,5.3,40.2,12.7,44.8
		c13.2,8.2,23.8,2,30.5,10.7c6,7.9,1.5,15.3,6.2,26.8c3.2,7.8,14.3,15.5,46,16.6"/>
	<g>
		<g>
			<path fill="#F06700" d="M304.2,374.2c0,0.1,0,0.2-0.1,0.3l-11.4,14.4c-0.1,0.1-0.2,0.2-0.3,0.2c-0.1,0-0.3-0.1-0.4-0.2
				l-13.2-14.4c-0.2-0.2-0.2-0.5,0-0.7c0.2-0.2,0.5-0.2,0.7,0l12.8,14l11-14c0.2-0.2,0.5-0.2,0.7-0.1
				C304.1,373.9,304.2,374.1,304.2,374.2z"/>
		</g>
		
			<circle fill="none" stroke="#F06700" stroke-width="0.7" stroke-linecap="round" stroke-miterlimit="10" cx="292.3" cy="335.9" r="2.8"/>
		
			<line fill="none" stroke="#F06700" stroke-width="0.7" stroke-linecap="round" stroke-miterlimit="10" x1="292.3" y1="338.7" x2="292.3" y2="388.5"/>
	</g>
</g>
</svg>
